<?xml version="1.0" encoding="utf-8"?>
<!-- Generator: Adobe Illustrator 21.0.0, SVG Export Plug-In . SVG Version: 6.00 Build 0)  -->
<svg version="1.1" id="Layer_1" xmlns="http://www.w3.org/2000/svg" xmlns:xlink="http://www.w3.org/1999/xlink" x="0px" y="0px"
	 viewBox="0 0 578 82.8" style="enable-background:new 0 0 578 82.8;" xml:space="preserve">
<style type="text/css">
	.st0{fill-rule:evenodd;clip-rule:evenodd;fill:#231F20;}
	.st1{fill:#231F20;}
	.st2{font-family:'Adelon-Bold';}
	.st3{font-size:56.9303px;}
	.st4{letter-spacing:-1;}
	.st5{letter-spacing:1;}
	.st6{letter-spacing:3;}
	.st7{font-size:15.0888px;}
</style>
<path class="st0" d="M16.2,8.7c3.8,0.9,5.3,1.7,7.1,3.7c2.4,2.7,3.8,7.2,3.8,12.6c0,5.4-1.3,9.1-4.3,12c-1.9,1.8-3.2,2.4-6.6,3.1
	V8.7z M3.2,45.8h12.2c14,0,23-8.5,23-21.6c0-6.9-2.6-12.4-7.5-16.1c-4.4-3.1-10.5-5.1-16-5.1H3.2C4.9,5.5,5.3,6.5,5.3,9v30.6
	C5.3,42.5,4.9,43.5,3.2,45.8z"/>
<path class="st0" d="M51.5,23.5c0-6.1,0.6-9.5,2-11.4c0.8-1.2,2.7-1.9,5-1.9c8.4,0,14.5,7.3,14.5,17.4c0,4.8-0.8,8.8-2.3,11.1
	c-0.8,1.2-2.1,1.8-3.9,1.8c-7.7,0-14.1-6.4-15.1-15.1C51.6,24.7,51.5,24.1,51.5,23.5z M40.7,25c0,12.4,8.8,21.3,21.2,21.3
	c12.5,0,21.7-8.8,21.7-20.8c0-12.4-8.9-21.2-21.4-21.2C49.6,4.3,40.7,12.8,40.7,25z"/>
<path class="st0" d="M96.6,10.2c1.4,0.1,2.5,0.4,3.3,0.7c1.9,0.9,3,3.6,3,7.1c0,1.9-0.5,3.8-1.3,5.3c-1,1.9-2.2,2.6-5,2.8V10.2z
	 M85.1,45.8h14.3c-1.5-2.3-1.8-3.2-1.8-5.9V28.3h1.3c9.6,0,15.4-4.5,15.4-12c0-7.3-5.8-11.5-15.7-11.5H85.1c1.6,2.2,2,3.2,2,5.7
	v29.4C87.1,42.9,86.9,43.7,85.1,45.8z"/>
<path class="st0" d="M116,45.8h23.1l4-8.4c-6.3,1.6-8,1.8-14.6,2V27.7c2.9,0.5,3.6,0.7,6.3,1.6l4.5-7.3h-10.7V11.2
	c3.9,0.3,4.9,0.4,8.4,1.6l3.7-8h-24.4c1.5,2.3,1.9,3.4,1.9,5.8v29.2C118,42.6,117.6,43.6,116,45.8z"/>
<path class="st0" d="M156.9,3.1c1.8,2.3,2.2,3.4,2.2,5.9v30.6c0,2.5-0.4,3.7-2.1,6.2h15c-1.6-2.4-2.1-3.6-2.1-6.2V9.1
	c0-2.1,0.5-3.4,2.1-6H156.9z"/>
<path class="st0" d="M173.4,4.8l3,5.4v29.6c0,2.8-0.3,3.8-1.8,6h13.5c-1.5-2.4-1.8-3.5-1.8-6V22.5l16.1,23.3h11.1
	c-1.1-2.4-1.3-3.2-1.3-6.3V10.5c0-2,0.4-3.2,1.9-5.7h-13.6c1.6,2.2,1.9,3.1,1.9,5.7v21.9L186.2,9.3c-0.9-1.3-1.3-2.2-1.9-4.5H173.4z
	"/>
<path class="st0" d="M229.1,10.2c3.7,0.9,5.1,1.6,6.9,3.6c2.3,2.6,3.6,6.9,3.6,12.1c0,5.2-1.3,8.8-4.1,11.5c-1.9,1.7-3.1,2.3-6.3,3
	V10.2z M216.7,45.8h11.7c13.5,0,22.1-8.1,22.1-20.7c0-6.7-2.5-11.9-7.2-15.4c-4.2-3-10.1-4.9-15.3-4.9h-11.2c1.6,2.3,2,3.3,2,5.7
	v29.3C218.7,42.7,218.3,43.6,216.7,45.8z"/>
<text transform="matrix(1 0 0 1 250.8809 45.7541)"><tspan x="0" y="0" class="st1 st2 st3 st4">U</tspan><tspan x="38.2" y="0" class="st1 st2 st3">S</tspan><tspan x="67.9" y="0" class="st1 st2 st3 st5">T</tspan><tspan x="100.2" y="0" class="st1 st2 st3 st6">R</tspan><tspan x="138.2" y="0" class="st1 st2 st3 st4">I</tspan><tspan x="154.7" y="0" class="st1 st2 st3">ES</tspan></text>
<path class="st1" d="M493.3,41.9c0-21.5,18.3-38.8,40.8-38.8s40.8,17.4,40.8,38.8c0,21.4-18.3,38.8-40.8,38.8S493.3,63.4,493.3,41.9
	z M505.8,41.9c0,2.7,0.4,5.2,1.1,7.6l9.2-15.2l-9.2,0C506.1,36.8,505.8,39.3,505.8,41.9z M513.6,60.6c3.7,3.7,8.4,6.3,13.8,7.6
	L518.3,53L513.6,60.6z M540.9,68.1c5.3-1.2,10.1-3.9,13.8-7.6h-18.4L540.9,68.1z M561.3,49.4c0.7-2.4,1.1-4.9,1.1-7.5
	c0-2.7-0.4-5.2-1.2-7.6l-9.2,15.2L561.3,49.4z M554.6,23.2c-3.7-3.7-8.4-6.3-13.8-7.6l9.2,15.2L554.6,23.2z M527.3,15.7
	c-5.3,1.2-10.1,3.9-13.8,7.6h18.4L527.3,15.7z M543.2,41.9l-4.6-7.5h-9.1l-4.6,7.5l4.6,7.5h9.1L543.2,41.9z"/>
<text transform="matrix(1 0 0 1 469.4561 13.6537)"><tspan x="0" y="0" class="st1 st2 st7 st5">T</tspan><tspan x="9.5" y="0" class="st1 st2 st7">M</tspan></text>
<g>
	<path class="st1" d="M6.7,76.1v4.3H4.2V68.2h4.1c1.2,0,2.2,0.4,2.9,1.1s1.1,1.7,1.1,2.9c0,1.2-0.4,2.1-1.1,2.8
		c-0.7,0.7-1.7,1-2.9,1H6.7z M6.7,74.1h1.7c0.5,0,0.8-0.2,1.1-0.5c0.3-0.3,0.4-0.8,0.4-1.3c0-0.6-0.1-1.1-0.4-1.4
		c-0.3-0.4-0.6-0.5-1.1-0.5H6.7V74.1z"/>
	<path class="st1" d="M19,75.9h-1.2v4.4h-2.5V68.2h3.9c1.2,0,2.2,0.3,2.9,1c0.7,0.6,1,1.5,1,2.7c0,1.6-0.6,2.7-1.8,3.4l2.1,5v0.1
		h-2.6L19,75.9z M17.8,73.9h1.4c0.5,0,0.9-0.2,1.1-0.5c0.2-0.3,0.4-0.8,0.4-1.3c0-1.2-0.5-1.8-1.4-1.8h-1.4V73.9z"/>
	<path class="st1" d="M33.1,75.1h-3.8v3.2h4.5v2h-7V68.2h7v2h-4.5v2.9h3.8V75.1z"/>
	<path class="st1" d="M40.5,68.2l2.3,8.8l2.3-8.8h3.2v12.2h-2.5v-3.3L46,72l-2.4,8.4h-1.7L39.5,72l0.2,5.1v3.3h-2.5V68.2H40.5z"/>
	<path class="st1" d="M54.8,80.4h-2.5V68.2h2.5V80.4z"/>
	<path class="st1" d="M66.8,68.2v8.4c0,1.3-0.4,2.2-1,2.9c-0.7,0.7-1.7,1-2.9,1c-1.3,0-2.3-0.3-3-1c-0.7-0.7-1-1.7-1-2.9v-8.4h2.5
		v8.4c0,0.7,0.1,1.2,0.3,1.5c0.2,0.3,0.6,0.4,1.2,0.4c0.6,0,1-0.1,1.2-0.4c0.2-0.3,0.3-0.8,0.3-1.4v-8.4H66.8z"/>
	<path class="st1" d="M74,68.2l2.3,8.8l2.3-8.8h3.2v12.2h-2.5v-3.3l0.2-5.1l-2.4,8.4h-1.7L73,72l0.2,5.1v3.3h-2.5V68.2H74z"/>
	<path class="st1" d="M100,76.3c-0.1,1.4-0.5,2.4-1.2,3.1c-0.7,0.7-1.7,1.1-3,1.1c-1.4,0-2.4-0.5-3.2-1.4c-0.7-0.9-1.1-2.2-1.1-3.9
		v-2c0-1.7,0.4-3,1.1-3.9c0.8-0.9,1.8-1.4,3.2-1.4c1.3,0,2.3,0.4,3,1.1c0.7,0.7,1.1,1.8,1.2,3.2h-2.5c0-0.9-0.2-1.4-0.4-1.8
		s-0.7-0.5-1.3-0.5c-0.7,0-1.1,0.2-1.4,0.7C94.1,71.2,94,72,94,73.1v2.3c0,1.2,0.1,2,0.4,2.5c0.3,0.5,0.7,0.7,1.4,0.7
		c0.6,0,1.1-0.2,1.3-0.5c0.2-0.3,0.4-0.9,0.4-1.7H100z"/>
	<path class="st1" d="M112.1,75.4c0,1.6-0.4,2.9-1.2,3.8s-1.8,1.4-3.2,1.4c-1.4,0-2.4-0.4-3.2-1.3c-0.8-0.9-1.2-2.1-1.2-3.8v-2.1
		c0-1.7,0.4-3,1.2-3.9s1.8-1.4,3.2-1.4c1.4,0,2.4,0.5,3.2,1.4c0.8,0.9,1.2,2.2,1.2,3.9V75.4z M109.6,73.4c0-1.1-0.2-1.9-0.5-2.4
		s-0.8-0.8-1.5-0.8c-0.7,0-1.1,0.3-1.4,0.8c-0.3,0.5-0.5,1.3-0.5,2.3v2.2c0,1.1,0.2,1.8,0.5,2.3c0.3,0.5,0.8,0.8,1.5,0.8
		c0.6,0,1.1-0.2,1.4-0.7c0.3-0.5,0.5-1.3,0.5-2.3V73.4z"/>
	<path class="st1" d="M123.1,70.3h-3v10.1h-2.5V70.3h-3v-2h8.4V70.3z"/>
	<path class="st1" d="M134.9,70.3h-3v10.1h-2.5V70.3h-3v-2h8.4V70.3z"/>
	<path class="st1" d="M146.7,75.4c0,1.6-0.4,2.9-1.2,3.8s-1.8,1.4-3.2,1.4c-1.4,0-2.4-0.4-3.2-1.3c-0.8-0.9-1.2-2.1-1.2-3.8v-2.1
		c0-1.7,0.4-3,1.2-3.9s1.8-1.4,3.2-1.4c1.4,0,2.4,0.5,3.2,1.4c0.8,0.9,1.2,2.2,1.2,3.9V75.4z M144.2,73.4c0-1.1-0.2-1.9-0.5-2.4
		s-0.8-0.8-1.5-0.8c-0.7,0-1.1,0.3-1.4,0.8c-0.3,0.5-0.5,1.3-0.5,2.3v2.2c0,1.1,0.2,1.8,0.5,2.3c0.3,0.5,0.8,0.8,1.5,0.8
		c0.6,0,1.1-0.2,1.4-0.7c0.3-0.5,0.5-1.3,0.5-2.3V73.4z"/>
	<path class="st1" d="M159,80.4h-2.5l-3.6-8v8h-2.5V68.2h2.5l3.6,8v-8h2.4V80.4z"/>
	<path class="st1" d="M177.2,76.3c-0.1,1.4-0.5,2.4-1.2,3.1c-0.7,0.7-1.7,1.1-3,1.1c-1.4,0-2.4-0.5-3.2-1.4
		c-0.7-0.9-1.1-2.2-1.1-3.9v-2c0-1.7,0.4-3,1.1-3.9c0.8-0.9,1.8-1.4,3.2-1.4c1.3,0,2.3,0.4,3,1.1c0.7,0.7,1.1,1.8,1.2,3.2h-2.5
		c0-0.9-0.2-1.4-0.4-1.8s-0.7-0.5-1.3-0.5c-0.7,0-1.1,0.2-1.4,0.7c-0.3,0.5-0.4,1.2-0.4,2.3v2.3c0,1.2,0.1,2,0.4,2.5
		c0.3,0.5,0.7,0.7,1.4,0.7c0.6,0,1.1-0.2,1.3-0.5c0.2-0.3,0.4-0.9,0.4-1.7H177.2z"/>
	<path class="st1" d="M188.7,68.2v8.4c0,1.3-0.4,2.2-1,2.9c-0.7,0.7-1.7,1-2.9,1c-1.3,0-2.3-0.3-3-1c-0.7-0.7-1-1.7-1-2.9v-8.4h2.5
		v8.4c0,0.7,0.1,1.2,0.3,1.5c0.2,0.3,0.6,0.4,1.2,0.4c0.6,0,1-0.1,1.2-0.4c0.2-0.3,0.3-0.8,0.3-1.4v-8.4H188.7z"/>
	<path class="st1" d="M200.5,70.3h-3v10.1H195V70.3h-3v-2h8.4V70.3z"/>
	<path class="st1" d="M201.9,79.2c0-0.4,0.1-0.7,0.4-0.9c0.3-0.2,0.6-0.4,1-0.4c0.4,0,0.7,0.1,1,0.4c0.3,0.2,0.4,0.6,0.4,0.9
		c0,0.4-0.1,0.7-0.4,0.9c-0.3,0.2-0.6,0.4-1,0.4c-0.4,0-0.7-0.1-1-0.4C202,79.9,201.9,79.6,201.9,79.2z"/>
	<path class="st1" d="M228,76.3c-0.1,1.4-0.5,2.4-1.2,3.1c-0.7,0.7-1.7,1.1-3,1.1c-1.4,0-2.4-0.5-3.2-1.4c-0.7-0.9-1.1-2.2-1.1-3.9
		v-2c0-1.7,0.4-3,1.1-3.9c0.8-0.9,1.8-1.4,3.2-1.4c1.3,0,2.3,0.4,3,1.1c0.7,0.7,1.1,1.8,1.2,3.2h-2.5c0-0.9-0.2-1.4-0.4-1.8
		s-0.7-0.5-1.3-0.5c-0.7,0-1.1,0.2-1.4,0.7c-0.3,0.5-0.4,1.2-0.4,2.3v2.3c0,1.2,0.1,2,0.4,2.5c0.3,0.5,0.7,0.7,1.4,0.7
		c0.6,0,1.1-0.2,1.3-0.5c0.2-0.3,0.4-0.9,0.4-1.7H228z"/>
	<path class="st1" d="M237.4,77.9H234l-0.7,2.5h-2.6l3.8-12.2h2.2l3.8,12.2H238L237.4,77.9z M234.6,75.8h2.3l-1.1-4.3L234.6,75.8z"
		/>
	<path class="st1" d="M246.3,76.1v4.3h-2.5V68.2h4.1c1.2,0,2.2,0.4,2.9,1.1s1.1,1.7,1.1,2.9c0,1.2-0.4,2.1-1.1,2.8
		c-0.7,0.7-1.7,1-2.9,1H246.3z M246.3,74.1h1.7c0.5,0,0.8-0.2,1.1-0.5c0.3-0.3,0.4-0.8,0.4-1.3c0-0.6-0.1-1.1-0.4-1.4
		c-0.3-0.4-0.6-0.5-1.1-0.5h-1.7V74.1z"/>
	<path class="st1" d="M261.9,75.1H258v3.2h4.5v2h-7V68.2h7v2H258v2.9h3.8V75.1z"/>
	<path class="st1" d="M279.4,70.3h-3v10.1h-2.5V70.3h-3v-2h8.4V70.3z"/>
	<path class="st1" d="M291.2,75.4c0,1.6-0.4,2.9-1.2,3.8s-1.8,1.4-3.2,1.4c-1.4,0-2.4-0.4-3.2-1.3c-0.8-0.9-1.2-2.1-1.2-3.8v-2.1
		c0-1.7,0.4-3,1.2-3.9s1.8-1.4,3.2-1.4c1.4,0,2.4,0.5,3.2,1.4c0.8,0.9,1.2,2.2,1.2,3.9V75.4z M288.7,73.4c0-1.1-0.2-1.9-0.5-2.4
		s-0.8-0.8-1.5-0.8c-0.7,0-1.1,0.3-1.4,0.8c-0.3,0.5-0.5,1.3-0.5,2.3v2.2c0,1.1,0.2,1.8,0.5,2.3c0.3,0.5,0.8,0.8,1.5,0.8
		c0.6,0,1.1-0.2,1.4-0.7c0.3-0.5,0.5-1.3,0.5-2.3V73.4z"/>
	<path class="st1" d="M302.9,75.9l1.2-7.6h2.4l-2.2,12.2h-2.5l-1.4-7.2l-1.4,7.2h-2.5l-2.2-12.2h2.4l1.1,7.6l1.4-7.6h2.1L302.9,75.9
		z"/>
	<path class="st1" d="M318.3,80.4h-2.5l-3.6-8v8h-2.5V68.2h2.5l3.6,8v-8h2.4V80.4z"/>
	<path class="st1" d="M322.9,83.4l-1.3-0.7l0.3-0.6c0.4-0.7,0.5-1.3,0.6-2v-1.9h2.1l0,1.7c0,0.6-0.2,1.2-0.5,1.8
		S323.4,83,322.9,83.4z"/>
	<path class="st1" d="M339.7,77.2c0-0.5-0.1-0.9-0.4-1.1c-0.3-0.3-0.7-0.5-1.4-0.8c-1.2-0.5-2.1-1-2.6-1.6c-0.5-0.6-0.8-1.4-0.8-2.2
		c0-1,0.4-1.8,1.1-2.5c0.7-0.6,1.6-0.9,2.8-0.9c0.7,0,1.4,0.2,2,0.5c0.6,0.3,1,0.8,1.3,1.3c0.3,0.6,0.5,1.2,0.5,2h-2.4
		c0-0.6-0.1-1-0.4-1.3c-0.2-0.3-0.6-0.4-1-0.4c-0.4,0-0.8,0.1-1,0.4c-0.2,0.3-0.4,0.6-0.4,1c0,0.3,0.1,0.6,0.4,0.9
		c0.3,0.3,0.7,0.5,1.4,0.8c1.2,0.4,2,1,2.6,1.6c0.5,0.6,0.8,1.4,0.8,2.4c0,1.1-0.3,1.9-1,2.5c-0.7,0.6-1.6,0.9-2.7,0.9
		c-0.8,0-1.5-0.2-2.1-0.5c-0.6-0.3-1.2-0.8-1.5-1.4s-0.5-1.3-0.5-2.1h2.5c0,0.7,0.1,1.2,0.4,1.5c0.3,0.3,0.7,0.5,1.3,0.5
		C339.3,78.6,339.7,78.1,339.7,77.2z"/>
	<path class="st1" d="M354.4,75.4c0,1.6-0.4,2.9-1.2,3.8s-1.8,1.4-3.2,1.4c-1.4,0-2.4-0.4-3.2-1.3c-0.8-0.9-1.2-2.1-1.2-3.8v-2.1
		c0-1.7,0.4-3,1.2-3.9s1.8-1.4,3.2-1.4c1.4,0,2.4,0.5,3.2,1.4c0.8,0.9,1.2,2.2,1.2,3.9V75.4z M352,73.4c0-1.1-0.2-1.9-0.5-2.4
		s-0.8-0.8-1.5-0.8c-0.7,0-1.1,0.3-1.4,0.8c-0.3,0.5-0.5,1.3-0.5,2.3v2.2c0,1.1,0.2,1.8,0.5,2.3c0.3,0.5,0.8,0.8,1.5,0.8
		c0.6,0,1.1-0.2,1.4-0.7c0.3-0.5,0.5-1.3,0.5-2.3V73.4z"/>
	<path class="st1" d="M366.1,68.2v8.4c0,1.3-0.4,2.2-1,2.9s-1.7,1-2.9,1c-1.3,0-2.3-0.3-3-1c-0.7-0.7-1-1.7-1-2.9v-8.4h2.5v8.4
		c0,0.7,0.1,1.2,0.3,1.5c0.2,0.3,0.6,0.4,1.2,0.4s1-0.1,1.2-0.4s0.3-0.8,0.3-1.4v-8.4H366.1z"/>
	<path class="st1" d="M377.9,70.3h-3v10.1h-2.5V70.3h-3v-2h8.4V70.3z"/>
	<path class="st1" d="M389.9,80.4h-2.4v-5.2h-3.6v5.2h-2.5V68.2h2.5v4.9h3.6v-4.9h2.4V80.4z"/>
	<path class="st1" d="M405.4,77.9H402l-0.7,2.5h-2.6l3.8-12.2h2.2l3.8,12.2H406L405.4,77.9z M402.6,75.8h2.3l-1.1-4.3L402.6,75.8z"
		/>
	<path class="st1" d="M418.1,75.4h-3.8v5h-2.5V68.2h6.7v2h-4.3v3.1h3.8V75.4z"/>
	<path class="st1" d="M426,75.9h-1.2v4.4h-2.5V68.2h3.9c1.2,0,2.2,0.3,2.8,1c0.7,0.6,1,1.5,1,2.7c0,1.6-0.6,2.7-1.8,3.4l2.1,5v0.1
		h-2.6L426,75.9z M424.8,73.9h1.4c0.5,0,0.9-0.2,1.1-0.5c0.2-0.3,0.4-0.8,0.4-1.3c0-1.2-0.5-1.8-1.4-1.8h-1.4V73.9z"/>
	<path class="st1" d="M436.4,80.4H434V68.2h2.5V80.4z"/>
	<path class="st1" d="M448.8,76.3c-0.1,1.4-0.5,2.4-1.2,3.1c-0.7,0.7-1.7,1.1-3,1.1c-1.4,0-2.4-0.5-3.2-1.4
		c-0.7-0.9-1.1-2.2-1.1-3.9v-2c0-1.7,0.4-3,1.1-3.9c0.8-0.9,1.8-1.4,3.2-1.4c1.3,0,2.3,0.4,3,1.1c0.7,0.7,1.1,1.8,1.2,3.2h-2.5
		c0-0.9-0.2-1.4-0.4-1.8s-0.7-0.5-1.3-0.5c-0.7,0-1.1,0.2-1.4,0.7c-0.3,0.5-0.4,1.2-0.4,2.3v2.3c0,1.2,0.1,2,0.4,2.5
		c0.3,0.5,0.7,0.7,1.4,0.7c0.6,0,1.1-0.2,1.3-0.5c0.2-0.3,0.4-0.9,0.4-1.7H448.8z"/>
	<path class="st1" d="M458.2,77.9h-3.3l-0.7,2.5h-2.6l3.8-12.2h2.2l3.8,12.2h-2.6L458.2,77.9z M455.3,75.8h2.3l-1.1-4.3L455.3,75.8z
		"/>
</g>
</svg>
